<svg width="469" height="56" viewBox="0 0 469 56" fill="none" xmlns="http://www.w3.org/2000/svg">
<mask id="path-1-inside-1_103_60" fill="white">
<path fill-rule="evenodd" clip-rule="evenodd" d="M0 4C0 1.79086 1.79086 0 4 0H15.7287H453.271H465C467.209 0 469 1.79086 469 4V52C469 54.2091 467.209 56 465 56H3.99999C1.79085 56 0 54.2091 0 52V4ZM453.271 1H15.7287H4.92988C2.99688 1 1.42988 2.567 1.42988 4.5V51.5C1.42988 53.433 2.99688 55 4.92987 55H464.07C466.003 55 467.57 53.433 467.57 51.5V4.5C467.57 2.567 466.003 1 464.07 1H453.271Z"/>
</mask>
<path fill-rule="evenodd" clip-rule="evenodd" d="M0 4C0 1.79086 1.79086 0 4 0H15.7287H453.271H465C467.209 0 469 1.79086 469 4V52C469 54.2091 467.209 56 465 56H3.99999C1.79085 56 0 54.2091 0 52V4ZM453.271 1H15.7287H4.92988C2.99688 1 1.42988 2.567 1.42988 4.5V51.5C1.42988 53.433 2.99688 55 4.92987 55H464.07C466.003 55 467.57 53.433 467.57 51.5V4.5C467.57 2.567 466.003 1 464.07 1H453.271Z" fill="white"/>
<path d="M4 -1C1.23858 -1 -1 1.23858 -1 4H1C1 2.34315 2.34315 1 4 1V-1ZM15.7287 -1H4V1H15.7287V-1ZM15.7287 1H453.271V-1H15.7287V1ZM465 -1H453.271V1H465V-1ZM470 4C470 1.23858 467.761 -1 465 -1V1C466.657 1 468 2.34315 468 4H470ZM470 52V4H468V52H470ZM465 57C467.761 57 470 54.7614 470 52H468C468 53.6569 466.657 55 465 55V57ZM3.99999 57H465V55H3.99999V57ZM-1 52C-1 54.7614 1.23857 57 3.99999 57V55C2.34314 55 1 53.6569 1 52H-1ZM-1 4V52H1V4H-1ZM453.271 0H15.7287V2H453.271V0ZM15.7287 0H4.92988V2H15.7287V0ZM4.92988 0C2.4446 0 0.429878 2.01472 0.429878 4.5H2.42988C2.42988 3.11929 3.54917 2 4.92988 2V0ZM0.429878 4.5V51.5H2.42988V4.5H0.429878ZM0.429878 51.5C0.429878 53.9853 2.44459 56 4.92987 56V54C3.54916 54 2.42988 52.8807 2.42988 51.5H0.429878ZM4.92987 56H464.07V54H4.92987V56ZM464.07 56C466.555 56 468.57 53.9853 468.57 51.5H466.57C466.57 52.8807 465.451 54 464.07 54V56ZM468.57 51.5V4.5H466.57V51.5H468.57ZM468.57 4.5C468.57 2.01472 466.555 0 464.07 0V2C465.451 2 466.57 3.11928 466.57 4.5H468.57ZM464.07 0H453.271V2H464.07V0Z" fill="#49C8B7" mask="url(#path-1-inside-1_103_60)"/>
</svg>
